<?xml version="1.0" standalone="no"?>
<!DOCTYPE svg PUBLIC "-//W3C//DTD SVG 20010904//EN"
 "http://www.w3.org/TR/2001/REC-SVG-20010904/DTD/svg10.dtd">
<svg version="1.0" xmlns="http://www.w3.org/2000/svg"
 width="700.000000pt" height="700.000000pt" viewBox="0 0 700.000000 700.000000"
 preserveAspectRatio="xMidYMid meet">
<metadata>
Created by potrace 1.11, written by Peter Selinger 2001-2013
</metadata>
<g transform="translate(0.000000,700.000000) scale(0.100000,-0.100000)"
fill="#000000" stroke="none">
<path d="M3143 6984 c-153 -17 -293 -38 -383 -59 -14 -4 -45 -11 -70 -17 -621
-145 -1212 -478 -1675 -944 -55 -55 -120 -124 -145 -153 -25 -29 -55 -65 -68
-80 -43 -48 -161 -208 -220 -298 -215 -322 -379 -690 -473 -1057 -26 -101 -65
-296 -74 -365 -4 -30 -9 -63 -11 -75 -25 -124 -24 -791 1 -868 2 -7 6 -36 9
-63 15 -142 78 -409 140 -598 186 -569 516 -1077 971 -1497 115 -106 420 -340
443 -340 6 0 12 -4 14 -8 6 -16 232 -144 382 -217 261 -126 573 -231 831 -279
277 -52 364 -60 690 -60 233 0 349 5 425 18 14 3 45 7 70 10 240 31 547 114
805 216 129 52 339 153 349 168 4 6 -182 264 -271 377 -9 11 -325 436 -613
825 -153 207 -267 365 -310 430 -6 8 -36 53 -68 100 -32 47 -134 198 -227 335
-92 138 -210 311 -260 385 -50 74 -149 221 -220 325 -395 584 -553 815 -560
815 -2 0 -5 -152 -5 -337 -5 -1614 -6 -1689 -26 -1729 -27 -56 -59 -68 -194
-70 -97 -1 -120 1 -146 17 -70 43 -65 -80 -64 1445 0 1535 -6 1404 73 1443 36
18 57 20 171 18 93 -2 138 -7 155 -18 21 -12 279 -396 908 -1349 100 -151 279
-421 397 -600 118 -179 288 -437 379 -575 584 -884 719 -1088 875 -1325 96
-146 190 -289 209 -318 19 -28 38 -52 41 -52 9 0 102 64 192 132 211 159 431
367 589 556 78 93 271 355 271 366 0 3 13 25 29 48 117 173 278 524 361 783
32 102 92 344 105 425 4 25 9 52 10 60 4 20 23 152 31 215 9 68 11 619 3 675
-4 25 -10 72 -13 105 -3 33 -8 71 -11 85 -3 14 -7 42 -10 62 -6 51 -33 179
-52 253 -8 33 -16 67 -18 75 -46 207 -213 612 -350 846 -212 361 -436 630
-776 929 -169 150 -463 343 -702 462 -280 139 -659 265 -927 308 -45 7 -62 10
-110 19 -14 3 -45 7 -70 10 -25 3 -67 8 -95 12 -102 12 -600 11 -712 -2z
m1565 -2108 c18 -9 40 -31 49 -49 17 -30 18 -107 18 -1264 0 -678 -2 -1233 -5
-1233 -3 0 -13 12 -22 28 -26 41 -40 62 -79 122 -20 30 -82 125 -137 210 -56
85 -105 160 -110 165 -4 6 -25 38 -46 71 l-38 62 4 903 c4 975 2 939 57 976
33 22 84 29 192 27 57 -1 96 -7 117 -18z"/>
<path d="M5360 540 c-9 -6 -10 -10 -3 -10 6 0 15 5 18 10 8 12 4 12 -15 0z"/>
<path d="M5190 440 c-9 -6 -10 -10 -3 -10 6 0 15 5 18 10 8 12 4 12 -15 0z"/>
</g>
</svg>
